<?xml version="1.0" encoding="UTF-8"?> <svg xmlns="http://www.w3.org/2000/svg" viewBox="0 0 540 540"><defs><style>.cls-1{fill:#fba919;}.cls-2{fill:#d6e1eb;}.cls-3{fill:#acc4d7;}.cls-4{opacity:0.5;}.cls-5{fill:#82a6c2;}.cls-6{fill:#183059;}.cls-7{fill:#988bb3;}.cls-8{fill:#bdbfc1;}.cls-9{fill:#43597a;}.cls-10{fill:#9da0a1;}.cls-11{fill:#7c797a;}.cls-12{fill:#feeed1;}.cls-13{fill:#fccc75;}.cls-14{fill:#539e65;}.cls-15{fill:#7fb78c;}.cls-16{fill:#7eb68b;}.cls-17{fill:#f8a97a;}.cls-18{fill:#fff;}.cls-19{fill:#ebf0f5;}.cls-20{fill:none;stroke:#fccc75;stroke-miterlimit:10;}</style></defs><g id="BG"><rect class="cls-1" width="540" height="540"></rect></g><g id="Illos"><rect class="cls-2" x="191.1" y="77.48" width="142.37" height="195.8"></rect><rect class="cls-3" x="191.1" y="143.2" width="54.92" height="130.08"></rect><rect class="cls-3" x="197.7" y="89.74" width="36.73" height="132.02"></rect><g class="cls-4"><rect class="cls-5" x="203.84" y="101.51" width="5.85" height="5.85"></rect><rect class="cls-5" x="213.79" y="101.51" width="5.85" height="5.85"></rect><rect class="cls-5" x="223.75" y="101.51" width="5.85" height="5.85"></rect></g><g class="cls-4"><rect class="cls-5" x="203.84" y="113.12" width="5.85" height="5.85"></rect><rect class="cls-5" x="213.79" y="113.12" width="5.85" height="5.85"></rect><rect class="cls-5" x="223.75" y="113.12" width="5.85" height="5.85"></rect></g><g class="cls-4"><rect class="cls-5" x="203.84" y="124.74" width="5.85" height="5.85"></rect><rect class="cls-5" x="213.79" y="124.74" width="5.85" height="5.85"></rect><rect class="cls-5" x="223.75" y="124.74" width="5.85" height="5.85"></rect></g><g class="cls-4"><rect class="cls-5" x="203.84" y="136.35" width="5.85" height="5.85"></rect><rect class="cls-5" x="213.79" y="136.35" width="5.85" height="5.85"></rect><rect class="cls-5" x="223.75" y="136.35" width="5.85" height="5.85"></rect></g><g class="cls-4"><rect class="cls-5" x="203.84" y="147.97" width="5.85" height="5.85"></rect><rect class="cls-5" x="213.79" y="147.97" width="5.85" height="5.85"></rect><rect class="cls-5" x="223.75" y="147.97" width="5.85" height="5.85"></rect></g><g class="cls-4"><rect class="cls-5" x="203.84" y="159.58" width="5.85" height="5.85"></rect><rect class="cls-5" x="213.79" y="159.58" width="5.85" height="5.85"></rect><rect class="cls-5" x="223.75" y="159.58" width="5.85" height="5.85"></rect></g><g class="cls-4"><rect class="cls-5" x="203.84" y="171.19" width="5.85" height="5.85"></rect><rect class="cls-5" x="213.79" y="171.19" width="5.85" height="5.85"></rect><rect class="cls-5" x="223.75" y="171.19" width="5.85" height="5.85"></rect></g><g class="cls-4"><rect class="cls-5" x="203.84" y="182.39" width="5.85" height="5.85"></rect><rect class="cls-5" x="213.79" y="182.39" width="5.85" height="5.85"></rect><rect class="cls-5" x="223.75" y="182.39" width="5.85" height="5.85"></rect></g><rect class="cls-3" x="240.32" y="158.4" width="42.22" height="114.88"></rect><g class="cls-4"><rect class="cls-5" x="249.4" y="166.88" width="5.85" height="5.85"></rect><rect class="cls-5" x="259.36" y="166.88" width="5.85" height="5.85"></rect><rect class="cls-5" x="269.31" y="166.88" width="5.85" height="5.85"></rect></g><g class="cls-4"><rect class="cls-5" x="249.4" y="176.84" width="5.85" height="5.85"></rect><rect class="cls-5" x="259.36" y="176.84" width="5.85" height="5.85"></rect><rect class="cls-5" x="269.31" y="176.84" width="5.85" height="5.85"></rect></g><g class="cls-4"><rect class="cls-5" x="249.4" y="186.79" width="5.85" height="5.85"></rect><rect class="cls-5" x="259.36" y="186.79" width="5.85" height="5.85"></rect><rect class="cls-5" x="269.31" y="186.79" width="5.85" height="5.85"></rect></g><path class="cls-6" d="M319.9,179.8l-.06.31a2.58,2.58,0,0,0,.45,2l3.41,4.72c.05.07-.05.16-.12.1l-7.08-6.64a.78.78,0,0,0-1.29.4l-.09.4a1.49,1.49,0,0,0,.37,1.33l6.53,7c.07.06,0,.16-.09.11l-5.66-3.67a.65.65,0,0,0-1,.68l.15.7a1.76,1.76,0,0,0,.57,1l5,4.4a.07.07,0,0,1-.07.13l-4.14-1.41a1.7,1.7,0,0,0-1,0l-2.19,1.49s-.46,2,2.15,1.07a1.07,1.07,0,0,1,1,.17l2.34,1.87-1.42,2a1.7,1.7,0,0,1-2.36.42L312,196.08l-12.47-9.19a2.1,2.1,0,0,1-.62-2.65l6.49-12.61a2.1,2.1,0,0,1,3.15-.7l11.34,8.78S319.9,179.77,319.9,179.8Z"></path><polygon class="cls-6" points="323.88 182.78 323.88 182.78 323.88 182.78 323.88 182.78"></polygon><path class="cls-7" d="M233.74,206.13l-9-11.45,6.58-3.53a14.29,14.29,0,0,0,3.34-19.93l.38.57a17.78,17.78,0,1,1,31.26-4.22,3.33,3.33,0,0,1-1.3,1.64l-.55.37a2.86,2.86,0,0,0-1.26,2.55l.2,3.2a3.41,3.41,0,0,1-.62,2.18l-6.52,9.12a4.16,4.16,0,0,1-3.38,1.74h-1.09a2.8,2.8,0,0,0-2.8,2.8,4.44,4.44,0,0,0,1.6,3.2L253.46,206a5.24,5.24,0,0,1-1.63,5.25,8.42,8.42,0,0,1-7.17,1.92L241.07,212l-.34-.16A20.65,20.65,0,0,1,233.74,206.13Z"></path><path class="cls-6" d="M219.47,223.94c1.58-12.55-2.59-18.67-5.18-21.18a3.09,3.09,0,0,0-3.58-.55h0l14-7.54,9,11.45A20.35,20.35,0,0,0,241,212l0,0,3.59,1.16a8.42,8.42,0,0,0,7.17-1.92,5.24,5.24,0,0,0,1.63-5.25l-2.91-11.65,2.33.26,12.61,23.58a12.65,12.65,0,0,1,1.48,5.93v56.41h-44.8V249.62a19.24,19.24,0,0,0-1.56-7.59l-3.18-7.38Z"></path><path class="cls-7" d="M265.36,200.5,285.3,223l23.85-18.79a2.83,2.83,0,0,0,1.08-2.62,6.76,6.76,0,0,1,1.8-5.5l3.27,2.26a1.7,1.7,0,0,0,2.36-.42l1.42-2L316.74,194a1.07,1.07,0,0,0-1-.17c-2.61.91-2.15-1.07-2.15-1.07l2.19-1.49a1.7,1.7,0,0,1,1,0l4.14,1.41a.07.07,0,0,0,.07-.13l-5-4.4a1.76,1.76,0,0,1-.57-1l-.15-.7a.65.65,0,0,1,1-.68l5.66,3.67c.07,0,.16-.05.09-.11l-6.53-7a1.49,1.49,0,0,1-.37-1.33l.09-.4a.78.78,0,0,1,1.29-.4l7.08,6.64c.07.06.17,0,.12-.1l-3.41-4.72a2.58,2.58,0,0,1-.45-2l.06-.31a.82.82,0,0,1,1.44-.38l7.22,9.53a2.33,2.33,0,0,1,.1,2.67L322.58,201a1.85,1.85,0,0,1-.31.37l-6,5.76-26.93,29.26a6.57,6.57,0,0,1-9.45.24L267,223.93a12.7,12.7,0,0,0-1.48-5.72l-12.61-23.58S260.54,195.06,265.36,200.5Z"></path><path class="cls-8" d="M426.5,404.36h-46a19.27,19.27,0,0,0-19.27,19.27v48.59a21.41,21.41,0,0,0,2.42,9.95,11.21,11.21,0,0,1,.55,8.48h77.65v-70.9A15.39,15.39,0,0,0,426.5,404.36Z"></path><path class="cls-9" d="M399.08,270.19a5,5,0,0,1-2-6.87,20,20,0,0,0,2-15.4A19.48,19.48,0,0,0,361,255.16a10.44,10.44,0,0,0,1.76,4.84,6.22,6.22,0,0,1,.54,6.37,1.06,1.06,0,0,0,.77,1.5l1.76.3a.64.64,0,0,1,.48.89l-.42,1a.33.33,0,0,0,.21.45l2.14.67a.26.26,0,0,1,.11.41l-.55.64a.68.68,0,0,0,.32,1.1l1.09.32a1.26,1.26,0,0,1,.72.56l.8,1.34a3.93,3.93,0,0,0,4.44,1.78l3.51-1a5.68,5.68,0,0,1,7.23,5.11v.27a5.75,5.75,0,0,1-.73,2.82Z"></path><path class="cls-6" d="M399.07,247.61a19.48,19.48,0,0,0-37.79,1.93l13.5,3.46a5.84,5.84,0,0,1,4.11,3.87l1.47,4.53a5.14,5.14,0,0,1-4.85,6.74h-.26c-3-.07-5.92-1-8.94.34a.62.62,0,0,1,0,.58l-.42,1a.33.33,0,0,0,.21.45l2.14.67a.26.26,0,0,1,.11.41l-.55.64a.68.68,0,0,0,.32,1.1l1.09.32a1.26,1.26,0,0,1,.72.56l.8,1.34a3.93,3.93,0,0,0,4.44,1.78l3.51-1a5.71,5.71,0,0,1,3.64.19A12.68,12.68,0,0,0,388.2,268a11.62,11.62,0,0,0-.29-5.34l-1.55-5.28a2.91,2.91,0,0,1,1.58-3.49,2.86,2.86,0,0,1,2.34.06,2.93,2.93,0,0,1,1.7,2.17l.39,2.21a5.23,5.23,0,0,0,2.47,3.59l2.28,1.37A20,20,0,0,0,399.07,247.61Z"></path><path class="cls-6" d="M402.53,253.43a6.43,6.43,0,0,0-2.67.58,20.89,20.89,0,0,1-2.74,9.31l-.13-.08a6.47,6.47,0,1,0,5.54-9.81Z"></path><path class="cls-8" d="M217.07,48.29h90.44a26,26,0,0,1,26,26v3.23a0,0,0,0,1,0,0H191.1a0,0,0,0,1,0,0V74.26A26,26,0,0,1,217.07,48.29Z"></path><path class="cls-10" d="M217.07,273.28h90.44a26,26,0,0,1,26,26v3.23a0,0,0,0,1,0,0H191.1a0,0,0,0,1,0,0v-3.23A26,26,0,0,1,217.07,273.28Z" transform="translate(524.57 575.76) rotate(180)"></path><rect class="cls-11" x="246.03" y="60.33" width="32.52" height="5.12" rx="2.28"></rect><circle class="cls-11" cx="291.63" cy="62.89" r="3.46"></circle><path class="cls-8" d="M335.76,91.86H336a0,0,0,0,1,0,0v19.29a0,0,0,0,1,0,0h-.25a2,2,0,0,1-2-2V93.91A2,2,0,0,1,335.76,91.86Z" transform="translate(669.73 203.01) rotate(-180)"></path><path class="cls-8" d="M335.76,119.73H336a0,0,0,0,1,0,0V139a0,0,0,0,1,0,0h-.25a2,2,0,0,1-2-2v-15.2a2,2,0,0,1,2-2Z" transform="translate(669.73 258.76) rotate(180)"></path><path class="cls-12" d="M431,346.17a179.57,179.57,0,0,1-3.25-22.6l-2.54-32c0,.39,0,.78,0,1.17a14.53,14.53,0,0,1-1.83,7.1l-26.72,47.94a10,10,0,0,1-8.76,5.15h-3.07l3.07,15.61h47.74Z"></path><polygon class="cls-13" points="377.33 304.47 374.29 316.02 378.99 316.02 377.33 304.47"></polygon><path class="cls-14" d="M339.54,443.68l-6.09-43.13a14.16,14.16,0,0,1-.14-2,14,14,0,0,1,9.1-13.1l-4,1.34a10.87,10.87,0,0,0-6.79,6.64l-22.16,70.05h22.82Z"></path><path class="cls-13" d="M288,487.38a5.16,5.16,0,0,0-.07.79v2.54h42.25a14.54,14.54,0,0,0,1.41-3.33Z"></path><path class="cls-9" d="M331.05,489c0-.06.05-.13.08-.19S331.08,488.89,331.05,489Z"></path><path class="cls-9" d="M330.81,489.5l.08-.16Z"></path><path class="cls-9" d="M330.93,489.24l.08-.18Z"></path><path class="cls-9" d="M331.26,488.41l.21-.61Z"></path><path class="cls-9" d="M330.2,490.7v0Z"></path><path class="cls-9" d="M331.49,487.75c0-.08.05-.15.07-.23C331.54,487.6,331.51,487.67,331.49,487.75Z"></path><path class="cls-9" d="M331.6,487.38a11.23,11.23,0,0,0-.55-8.49,21.34,21.34,0,0,1-2.42-9.94v-5.44H312.84c-1.19,5.85-5.51,17.7-21.07,20.15a4.56,4.56,0,0,0-3.76,3.72Z"></path><path class="cls-9" d="M288,487.77l0-.23Z"></path><path class="cls-9" d="M331.17,488.66a2.09,2.09,0,0,0,.08-.23A2.09,2.09,0,0,1,331.17,488.66Z"></path><path class="cls-9" d="M330.34,490.46l0-.08Z"></path><path class="cls-9" d="M330.28,490.57l0-.06Z"></path><path class="cls-9" d="M330.23,490.65l0,0Z"></path><path class="cls-9" d="M330.7,489.74l.07-.14Z"></path><path class="cls-9" d="M330.6,490l.06-.12Z"></path><path class="cls-9" d="M330.41,490.32l0-.09Z"></path><path class="cls-9" d="M330.5,490.15l.06-.11Z"></path><path class="cls-15" d="M438.18,380.53l-2.52-12H387.92l-45.51,17a14,14,0,0,0-9.1,13.1,14.16,14.16,0,0,0,.14,2l7.26,63h20.56V423.63a19.27,19.27,0,0,1,19.27-19.27h38.3A19.76,19.76,0,0,0,438.6,384.6,19.44,19.44,0,0,0,438.18,380.53Z"></path><path class="cls-16" d="M133.2,425.53c5.27,3.26,13.29,1.48,17.48-2.75,6.5-6.57,2.39-14.72,5.08-22.3,2.25-6.32,10.17-6.91,11.33-13.26,1-5.45-4.25-10.12-3.09-15.66-4,3.36-10.08,1.53-14.25,4.46-5.71,4-1.86,10.73-5.63,15.94-4.29,5.94-12.8,6.64-16.62,13.36-3.54,6.25-1.83,16.06,4.85,19.71"></path><path class="cls-16" d="M133.1,425c5.46-2.93,7.94-10.77,6.37-16.51C137,399.62,127.91,399.1,122.7,393c-4.35-5.1-.91-12.26-5.82-16.44-4.22-3.59-10.89-1.38-15.11-5.15.93,5.11-3.72,9.49-3.27,14.57.62,7,8.37,7,11,12.84,3,6.69-.65,14.41,3.26,21.08,3.64,6.19,13,9.61,19.49,5.65"></path><path class="cls-14" d="M133.18,436.75c6.19.23,12.26-6.35,13.77-13.18,2.35-10.59-5.28-16.52-6.74-25.88-1.21-7.81,5.36-13.12,3.2-20.32-1.85-6.19-8.74-7.86-10.5-14.23-1.76,5.8-8,7.54-10.12,13-3,7.5,3.75,12.11,3.08,19.69-.75,8.63-7.77,14.41-7.72,23.56,0,8.51,6.44,17.56,14,17.34"></path><path class="cls-13" d="M129.34,494h6.91A27.64,27.64,0,0,0,164,467c0-.18,0-.37,0-.56a31.26,31.26,0,0,0-1.64-10l-11.55-34.08h-36l-11.55,34.08a31.26,31.26,0,0,0-1.64,10V467A27.65,27.65,0,0,0,129.34,494Z"></path><rect class="cls-13" x="159.86" y="331.71" width="12.87" height="21.18"></rect><rect class="cls-14" x="165.93" y="299.64" width="0.73" height="32.08"></rect><path class="cls-14" d="M166.29,328.48l-1.53-5.74a2.75,2.75,0,0,0-4.59-1.23l-.84.84a2.75,2.75,0,0,0,1.23,4.59Z"></path><path class="cls-14" d="M166.29,310.48l-1.53-5.73a2.74,2.74,0,0,0-4.59-1.23l-.84.83a2.74,2.74,0,0,0,1.23,4.59Z"></path><path class="cls-14" d="M166.28,321.11l1.54-5.73a2.74,2.74,0,0,1,4.59-1.23l.84.84a2.75,2.75,0,0,1-1.23,4.59Z"></path><path class="cls-14" d="M166.28,310.48l1.54-5.73a2.74,2.74,0,0,1,4.59-1.23l.84.83a2.74,2.74,0,0,1-1.23,4.59Z"></path><circle class="cls-13" cx="166.29" cy="299.12" r="1.81"></circle><path class="cls-13" d="M417.4,279.78a14.61,14.61,0,0,0-20.52,8l-10,28.2h27.52l9-16.21a14.53,14.53,0,0,0,1.83-7.1c0-.39,0-.78,0-1.17A14.59,14.59,0,0,0,417.4,279.78Z"></path><rect class="cls-11" x="189.95" y="358.28" width="5.76" height="135.7"></rect><rect class="cls-11" x="327.53" y="358.28" width="5.76" height="135.7"></rect><circle class="cls-11" cx="258.83" cy="288.32" r="7.42"></circle><path class="cls-6" d="M373.07,342.06a4.78,4.78,0,0,0,4.23-2.95L386.84,316H374.3l-9.55,23.09a6.6,6.6,0,0,1-5,3.51Z"></path><rect class="cls-17" x="132.79" y="352.9" width="264.2" height="5.38"></rect><path class="cls-6" d="M298.17,341.88l2.83-2.45h-9.63a.74.74,0,0,0-.41,1.28h0a4.3,4.3,0,0,0,2.93,1.17Z"></path><path class="cls-9" d="M386.84,316l-9.54,23.09a4.78,4.78,0,0,1-4.23,2.95l-52.91,2.23a14.11,14.11,0,0,1-4.94-.89L304,339.22a3.55,3.55,0,0,0-3.41.52l-9,6.95h2.22a5.93,5.93,0,0,0,3-.85l3.95-2.38h0a.46.46,0,0,1,.45.81l-4.22,2.61a.73.73,0,0,0,.31,1.3,4.35,4.35,0,0,0,3.11-.54l3.64-2.24.1-.3c2,2.64,5.34,6.45,13.82,4.24a8.2,8.2,0,0,1,2.84-.13l23.73,3.7h49.29L414.36,316Z"></path><path class="cls-12" d="M381.26,331.71h0l15.62-43.89a14.61,14.61,0,0,1,20.52-8l-18.32-9.59-13.87,14.34L379,295.7a13.88,13.88,0,0,0-1.62,8.77Z"></path><polygon class="cls-18" points="269.03 112.83 323.71 112.83 323.71 149.02 318.67 149.02 309.51 160.66 300.36 149.02 269.03 149.02 269.03 112.83"></polygon><path class="cls-6" d="M239,166.76a8.22,8.22,0,0,0-.26,3.84,6,6,0,0,1-1.93,5.31h0a14.32,14.32,0,0,0-2.19-4.69l.38.57a17.78,17.78,0,1,1,31.75-14.68c0,.07-2.62,8.53-15.84,10.47a8,8,0,0,0-5.48,3.31,5.88,5.88,0,0,0-.91,2.06,13.69,13.69,0,0,0-.47-6.38A2.71,2.71,0,0,0,239,166.76Z"></path><path class="cls-6" d="M244.53,173l-.08.52A3.12,3.12,0,0,1,244.53,173Z"></path><path class="cls-6" d="M230.66,143c3.2-5.54,8.82-8.27,12.57-6.11,2.23,1.29,3.28,4,3.09,7.21a17.69,17.69,0,0,0-14,13.16,3.92,3.92,0,0,1-.65-.32C227.9,154.76,227.46,148.52,230.66,143Z"></path><path class="cls-13" d="M320.7,490.65a4.15,4.15,0,0,0-.07.79V494h42.25a15.09,15.09,0,0,0,1.41-3.33Z"></path><path class="cls-9" d="M364.24,490.65a11.21,11.21,0,0,0-.55-8.48,21.41,21.41,0,0,1-2.42-9.95v-8.71H345.93s-.69,20.14-21.53,23.42a4.55,4.55,0,0,0-3.75,3.72Z"></path><circle class="cls-19" cx="357.76" cy="483.74" r="3.23"></circle><polygon class="cls-3" points="307.13 288.96 358.69 288.96 358.69 323.09 353.93 323.09 345.3 334.06 336.67 323.09 307.13 323.09 307.13 288.96"></polygon><path class="cls-18" d="M339.6,304.25v-2h-2.75l.84-6.4h-2l-.87,6.4h-3.48l.84-6.4h-1.95l-.87,6.4H326.2v2h2.88l-.64,4.86h-3.05v2h2.75l-.87,6.56h2l.87-6.56h3.49l-.87,6.56h2l.87-6.56h3.18v-2H336l.6-4.86Zm-5.66,4.86h-3.49l.64-4.86h3.48Z"></path><circle class="cls-20" cx="240.78" cy="178.56" r="4.78"></circle><circle class="cls-3" cx="286.87" cy="131.83" r="3.61"></circle><circle class="cls-3" cx="296.37" cy="131.83" r="3.61"></circle><circle class="cls-3" cx="305.87" cy="131.83" r="3.61"></circle><path class="cls-7" d="M206.25,273.28h12.1l-3.62-21.86a5.52,5.52,0,0,1-.06-2.29l4.8-25.19c2-15.87-5.2-21.45-6.76-22.46a7.41,7.41,0,0,0-2,.74,7.79,7.79,0,0,0-4,5.85l-5.36,41.17a6.11,6.11,0,0,0,0,.86,6.37,6.37,0,0,0,.42,2.32Z"></path><path class="cls-9" d="M371.22,269.79a11.22,11.22,0,0,0-5.16-.07l-.14.32a.33.33,0,0,0,.21.45l2.14.67a.26.26,0,0,1,.11.41l-.55.64a.68.68,0,0,0,.32,1.1l1.09.32a1.26,1.26,0,0,1,.72.56l.47.79c.24,0,.47,0,.68-.06A2.63,2.63,0,0,0,371.22,269.79Z"></path><path class="cls-9" d="M344.6,352.9h49.29L414.36,316H386.84l-9.54,23.09a4.78,4.78,0,0,1-4.23,2.95l-52.91,2.23a14.11,14.11,0,0,1-4.94-.89L304,339.22a3.55,3.55,0,0,0-3.41.52l-9,6.95h2.22a5.93,5.93,0,0,0,3-.85l3.95-2.38h0a.46.46,0,0,1,.45.81l-4.22,2.61a.73.73,0,0,0,.31,1.3,4.35,4.35,0,0,0,3.11-.54l3.64-2.24.1-.3a13.55,13.55,0,0,0,13.05,5.14,11.67,11.67,0,0,1,3,0Z"></path><path class="cls-8" d="M305.27,346.38H277.75l-6.2-34.87H206.76l7.37,41.39h92v-5.66C305.79,347,305.51,346.66,305.27,346.38Z"></path><circle class="cls-18" cx="240.32" cy="334" r="6.02"></circle></g></svg> 